{"title":"Flop Show 3 Episodes Hindi by RoYStaR","uid":6429215,"size":944149592,"categoryP":"video","categoryS":"tv_shows","magnet":"?xt=urn:btih:1aebf8c3494a8c32f4ee6500edcd3fbcbd02b4df&amp;dn=Flop+Show+3+Episodes+Hindi+by+RoYStaR&amp;tr=udp%3A%2F%2Ftracker.openbittorrent.com%3A80&amp;tr=udp%3A%2F%2Fopen.demonii.com%3A1337&amp;tr=udp%3A%2F%2Ftracker.coppersurfer.tk%3A6969&amp;tr=udp%3A%2F%2Fexodus.desync.com%3A6969","seeders":0,"leechers":1,"uploader":"royhere","files":26,"time":1306541649,"description":"Flop Show 3 Episodes Hindi by RoYStaR\n\nGeneral\nComplete name                    : D:\\TOORENT FOR UPLOAD\\Flop Show 3 Episodes by RoYStaR\\Construction.avi\nFormat                           : AVI\nFormat/Info                      : Audio Video Interleave\nFile size                        : 300 MiB\nDuration                         : 23mn 6s\nOverall bit rate                 : 1 814 Kbps\nWriting application              : VirtualDubMod 1.5.4.1 (build 2178/release)\nWriting library                  : VirtualDubMod build 2178/release\n\nVideo\nID                               : 0\nFormat                           : MPEG-4 Visual\nFormat profile                   : Advanced Simple@L5\nFormat settings, BVOP            : 1\nFormat settings, QPel            : No\nFormat settings, GMC             : No warppoints\nFormat settings, Matrix          : Custom\nCodec ID                         : XVID\nCodec ID/Hint                    : XviD\nDuration                         : 23mn 6s\nBit rate                         : 1 682 Kbps\nWidth                            : 528 pixels\nHeight                           : 400 pixels\nDisplay aspect ratio             : 4:3\nFrame rate                       : 29.970 fps\nColor space                      : YUV\nChroma subsampling               : 4:2:0\nBit depth                        : 8 bits\nScan type                        : Progressive\nCompression mode                 : Lossy\nBits/(Pixel*Frame)               : 0.266\nStream size                      : 278 MiB (93%)\nWriting library                  : XviD 1.2.0SMP (UTC 2006-01-08)\n\nAudio\nID                               : 1\nFormat                           : MPEG Audio\nFormat version                   : Version 1\nFormat profile                   : Layer 3\nMode                             : Joint stereo\nCodec ID                         : 55\nCodec ID/Hint                    : MP3\nDuration                         : 23mn 6s\nBit rate mode                    : Variable\nBit rate                         : 117 Kbps\nNominal bit rate                 : 128 Kbps\nChannel(s)                       : 2 channels\nSampling rate                    : 48.0 KHz\nCompression mode                 : Lossy\nDelay relative to video          : 1s 584ms\nStream size                      : 19.4 MiB (6%)\nAlignment                        : Split accross interleaves\nInterleave, duration             : 24 ms (0.72 video frame)\nInterleave, preload duration     : 1649 ms\nWriting library                  : LAME3.97b\nEncoding settings                : -m j -V 4 -q 2 -lowpass 17 --abr 128\n\n---------------------------------------------------------------------------------------------\nGeneral\nComplete name                    : D:\\TOORENT FOR UPLOAD\\Flop Show 3 Episodes by RoYStaR\\Office Misuse.avi\nFormat                           : AVI\nFormat/Info                      : Audio Video Interleave\nFile size                        : 300 MiB\nDuration                         : 21mn 37s\nOverall bit rate                 : 1 938 Kbps\nWriting application              : VirtualDubMod 1.5.4.1 (build 2178/release)\nWriting library                  : VirtualDubMod build 2178/release\n\nVideo\nID                               : 0\nFormat                           : MPEG-4 Visual\nFormat profile                   : Advanced Simple@L5\nFormat settings, BVOP            : 1\nFormat settings, QPel            : No\nFormat settings, GMC             : No warppoints\nFormat settings, Matrix          : Custom\nCodec ID                         : XVID\nCodec ID/Hint                    : XviD\nDuration                         : 21mn 37s\nBit rate                         : 1 808 Kbps\nWidth                            : 608 pixels\nHeight                           : 464 pixels\nDisplay aspect ratio             : 4:3\nFrame rate                       : 29.970 fps\nColor space                      : YUV\nChroma subsampling               : 4:2:0\nBit depth                        : 8 bits\nScan type                        : Progressive\nCompression mode                 : Lossy\nBits/(Pixel*Frame)               : 0.214\nStream size                      : 280 MiB (93%)\nWriting library                  : XviD 1.2.0SMP (UTC 2006-01-08)\n\nAudio\nID                               : 1\nFormat                           : MPEG Audio\nFormat version                   : Version 1\nFormat profile                   : Layer 3\nMode                             : Joint stereo\nMode extension                   : MS Stereo\nCodec ID                         : 55\nCodec ID/Hint                    : MP3\nDuration                         : 21mn 37s\nBit rate mode                    : Variable\nBit rate                         : 117 Kbps\nNominal bit rate                 : 128 Kbps\nChannel(s)                       : 2 channels\nSampling rate                    : 48.0 KHz\nCompression mode                 : Lossy\nStream size                      : 18.0 MiB (6%)\nAlignment                        : Aligned on interleaves\nInterleave, duration             : 24 ms (0.72 video frame)\nInterleave, preload duration     : 556 ms\nWriting library                  : LAME3.97b\nEncoding settings                : -m j -V 4 -q 2 -lowpass 17 --abr 128\n---------------------------------------------------------------------------------------------\nGeneral\nComplete name                    : D:\\TOORENT FOR UPLOAD\\Flop Show 3 Episodes by RoYStaR\\PHD.avi\nFormat                           : AVI\nFormat/Info                      : Audio Video Interleave\nFile size                        : 300 MiB\nDuration                         : 22mn 26s\nOverall bit rate                 : 1 868 Kbps\nWriting application              : VirtualDubMod 1.5.4.1 (build 2178/release)\nWriting library                  : VirtualDubMod build 2178/release\n\nVideo\nID                               : 0\nFormat                           : MPEG-4 Visual\nFormat profile                   : Advanced Simple@L5\nFormat settings, BVOP            : 1\nFormat settings, QPel            : No\nFormat settings, GMC             : No warppoints\nFormat settings, Matrix          : Custom\nCodec ID                         : XVID\nCodec ID/Hint                    : XviD\nDuration                         : 22mn 26s\nBit rate                         : 1 735 Kbps\nWidth                            : 560 pixels\nHeight                           : 416 pixels\nDisplay aspect ratio             : 4:3\nFrame rate                       : 29.970 fps\nColor space                      : YUV\nChroma subsampling               : 4:2:0\nBit depth                        : 8 bits\nScan type                        : Progressive\nCompression mode                 : Lossy\nBits/(Pixel*Frame)               : 0.248\nStream size                      : 278 MiB (93%)\nWriting library                  : XviD 1.2.0SMP (UTC 2006-01-08)\n\nAudio\nID                               : 1\nFormat                           : MPEG Audio\nFormat version                   : Version 1\nFormat profile                   : Layer 3\nMode                             : Joint stereo\nMode extension                   : MS Stereo\nCodec ID                         : 55\nCodec ID/Hint                    : MP3\nDuration                         : 22mn 26s\nBit rate mode                    : Variable\nBit rate                         : 119 Kbps\nNominal bit rate                 : 128 Kbps\nChannel(s)                       : 2 channels\nSampling rate                    : 48.0 KHz\nCompression mode                 : Lossy\nDelay relative to video          : 1s 752ms\nStream size                      : 19.1 MiB (6%)\nAlignment                        : Split accross interleaves\nInterleave, duration             : 24 ms (0.72 video frame)\nInterleave, preload duration     : 1628 ms\nWriting library                  : LAME3.97b\nEncoding settings                : -m j -V 4 -q 2 -lowpass 17 --abr 128\n---------------------------------------------------------------------------------------------","torrent":{"xt":"urn:btih:1aebf8c3494a8c32f4ee6500edcd3fbcbd02b4df","amp;dn":"Flop+Show+3+Episodes+Hindi+by+RoYStaR","amp;tr":["udp%3A%2F%2Ftracker.openbittorrent.com%3A80","udp%3A%2F%2Fopen.demonii.com%3A1337","udp%3A%2F%2Ftracker.coppersurfer.tk%3A6969","udp%3A%2F%2Fexodus.desync.com%3A6969"],"infoHash":"1aebf8c3494a8c32f4ee6500edcd3fbcbd02b4df","infoHashBuffer":{"type":"Buffer","data":[26,235,248,195,73,74,140,50,244,238,101,0,237,205,63,188,189,2,180,223]},"announce":[],"urlList":[]}}